<svg viewBox="0 0 32 32">
  <path d="M 27.785715,1 H 4.214285 C 2.4397325,1 1,2.439725 1,4.214275 v 23.57145 C 1,29.560275 2.4397325,31 4.214285,31 h 23.57143 C 29.560267,31 31,29.560275 31,27.785725 V 4.214275 C 31,2.439725 29.560267,1 27.785715,1 Z M 17.325892,24.397325 c 0,2.91965 -1.714285,4.252225 -4.212052,4.252225 -2.256698,0 -3.5625,-1.165175 -4.2321425,-2.578125 l 2.2968745,-1.38615 c 0.441963,0.783475 0.843751,1.446425 1.81473,1.446425 0.924108,0 1.513395,-0.3616 1.513395,-1.77455 v -9.5826 h 2.819195 z m 6.669643,4.252225 c -2.618303,0 -4.3125,-1.245525 -5.13616,-2.87945 l 2.296875,-1.3259 c 0.602677,0.984375 1.392857,1.714275 2.779017,1.714275 1.165181,0 1.91518,-0.582575 1.91518,-1.39285 0,-0.964275 -0.763395,-1.3058 -2.055805,-1.875 l -0.703124,-0.30135 c -2.035716,-0.863825 -3.381695,-1.95535 -3.381695,-4.252225 0,-2.116075 1.613837,-3.7232 4.125,-3.7232 1.794642,0 3.080354,0.62275 4.004462,2.256675 l -2.196427,1.40625 c -0.482143,-0.863825 -1.004465,-1.20535 -1.814733,-1.20535 -0.82366,0 -1.345982,0.522325 -1.345982,1.20535 0,0.84375 0.522322,1.185275 1.734375,1.7143 l 0.703125,0.301325 c 2.397322,1.024575 3.743305,2.0759 3.743305,4.43305 0,2.53125 -1.995538,3.9241 -4.667413,3.9241 z"/>
</svg>
